<?xml version="1.0" standalone="no"?>
<!DOCTYPE svg PUBLIC "-//W3C//DTD SVG 20010904//EN"
 "http://www.w3.org/TR/2001/REC-SVG-20010904/DTD/svg10.dtd">
<svg version="1.0" xmlns="http://www.w3.org/2000/svg"
 width="188.000000pt" height="45.000000pt" viewBox="0 0 188.000000 45.000000"
 preserveAspectRatio="xMidYMid meet">

<g transform="translate(0.000000,45.000000) scale(0.100000,-0.100000)"
fill="#000000" stroke="none">
<path d="M331 133 c-13 -49 -26 -94 -29 -101 -3 -9 15 -12 71 -12 97 0 112 14
136 121 14 62 -5 79 -87 79 l-67 0 -24 -87z m126 15 c-11 -68 -24 -88 -57 -88
-35 0 -35 0 -15 68 15 48 18 52 47 52 29 0 30 -2 25 -32z"/>
<path d="M534 163 c-9 -32 -17 -76 -18 -98 l-1 -40 61 -3 c82 -4 98 10 128
116 l24 82 -29 0 c-26 0 -29 -5 -51 -77 -24 -78 -38 -93 -73 -79 -11 4 -10 16
6 68 24 81 24 88 -5 88 -21 0 -27 -8 -42 -57z"/>
<path d="M745 194 c-29 -32 -54 -128 -38 -153 11 -18 60 -28 110 -23 23 3 32
10 35 26 4 21 1 23 -39 23 -24 0 -46 3 -49 6 -4 4 1 27 10 52 18 45 18 45 67
45 27 0 49 4 49 9 0 5 3 16 6 25 5 14 -4 16 -60 16 -59 0 -70 -3 -91 -26z"/>
<path d="M933 205 c-23 -16 -53 -93 -53 -135 0 -39 18 -50 80 -50 65 0 83 13
106 77 20 56 18 100 -5 113 -29 15 -103 12 -128 -5z m84 -57 c-11 -68 -25 -90
-55 -86 -22 2 -26 7 -24 28 2 14 10 40 17 58 11 25 20 32 41 32 25 0 26 -3 21
-32z"/>
<path d="M1100 148 c-12 -40 -25 -85 -30 -100 -8 -26 -7 -28 18 -28 21 0 30 7
39 30 6 17 18 30 26 30 8 0 20 -13 26 -30 7 -23 16 -30 35 -30 27 0 29 3 17
35 -5 13 0 30 16 53 28 43 30 87 4 102 -11 5 -45 10 -75 10 l-55 0 -21 -72z
m115 22 c11 -18 -15 -50 -40 -50 -27 0 -28 3 -19 38 7 23 47 32 59 12z"/>
<path d="M1317 213 c-3 -5 -15 -44 -27 -88 -12 -43 -24 -85 -27 -92 -4 -9 4
-13 25 -13 25 0 30 5 36 30 4 21 11 30 25 30 13 0 21 -9 26 -30 5 -25 12 -30
35 -30 28 0 28 1 19 32 -6 22 -6 34 1 36 14 5 40 57 40 80 0 34 -32 52 -93 52
-31 0 -58 -3 -60 -7z m96 -40 c3 -5 1 -18 -4 -30 -6 -17 -16 -23 -38 -23 -29
0 -30 1 -20 30 8 22 17 30 34 30 13 0 26 -3 28 -7z"/>
</g>
</svg>
